<?xml version="1.0" encoding="UTF-8"?>
<svg version="1.1" xmlns="http://www.w3.org/2000/svg" width="1024" height="1024">
<path d="M0 0 C337.92 0 675.84 0 1024 0 C1024 337.92 1024 675.84 1024 1024 C686.08 1024 348.16 1024 0 1024 C0 686.08 0 348.16 0 0 Z " fill="#212428" transform="translate(0,0)"/>
<path d="M0 0 C1.2940979 -0.00983917 2.5881958 -0.01967834 3.92150879 -0.02981567 C8.09740394 -0.05734664 12.27324132 -0.0687681 16.44921875 -0.07421875 C17.16221004 -0.07522205 17.87520134 -0.07622536 18.60979843 -0.07725906 C133.29938019 -0.17612644 133.29938019 -0.17612644 162.41601562 27.39672852 C165.96555669 31.29887611 167.92056792 34.03354283 168.44921875 39.42578125 C168.07350564 44.00948124 166.9608338 47.57599302 164.13671875 51.23828125 C159.62789498 54.76604947 155.07592358 56.53495614 149.69921875 58.23828125 C148.99345703 58.47289062 148.28769531 58.7075 147.56054688 58.94921875 C134.84025231 63.08915714 121.78241857 66.09306286 108.76171875 69.11328125 C86.61548451 74.26887786 64.51485924 79.61054633 42.43066406 85.02539062 C38.97888948 85.87132681 35.526559 86.71496946 32.07421875 87.55859375 C20.7276649 90.33652231 9.41208259 93.18329323 -1.86328125 96.23828125 C-4.7217449 96.98752408 -7.58230141 97.72829888 -10.44311523 98.46850586 C-29.35752842 103.36398116 -48.12640366 108.70425379 -66.86328125 114.23828125 C-68.30956424 114.66424589 -69.75585361 115.09018885 -71.20214844 115.51611328 C-90.43733011 121.18715638 -109.60527261 127.03409099 -128.67578125 133.23828125 C-129.51681396 133.51150208 -130.35784668 133.7847229 -131.22436523 134.06622314 C-136.44577555 135.76545536 -141.65834049 137.48928239 -146.86328125 139.23828125 C-148.00716309 139.61984375 -149.15104492 140.00140625 -150.32958984 140.39453125 C-151.3139502 140.73484375 -152.29831055 141.07515625 -153.3125 141.42578125 C-154.13451904 141.70808594 -154.95653809 141.99039063 -155.8034668 142.28125 C-158.18740624 143.38887624 -159.27085516 144.13300355 -160.86328125 146.23828125 C-161.45061918 149.34985693 -161.45061918 149.34985693 -161.53320312 153.0871582 C-161.58304981 154.19279476 -161.58304981 154.19279476 -161.6339035 155.3207674 C-162.01593262 164.97847494 -162.00866472 174.6503562 -162.07727051 184.31404114 C-162.29878049 214.69981837 -163.32385556 245.00636437 -164.89453125 275.3515625 C-164.9675112 276.76224825 -164.9675112 276.76224825 -165.04196548 278.2014327 C-165.6401938 289.72770953 -166.25952505 301.25280995 -166.88720608 312.77751625 C-167.4776839 323.62777625 -168.05139782 334.47891514 -168.625 345.33007812 C-168.82926221 349.19281155 -169.0336354 353.05553908 -169.23815918 356.91825867 C-169.28779359 357.85572361 -169.33742801 358.79318855 -169.38856649 359.75906152 C-169.72322301 366.07128767 -170.06218819 372.38327204 -170.40344238 378.69514465 C-172.32187265 412.67322195 -172.32187265 412.67322195 -173.03125 446.69140625 C-173.03530433 448.26834153 -173.03954184 449.84527635 -173.04394531 451.42221069 C-173.05529472 456.44424603 -173.05386651 461.46623722 -173.05078125 466.48828125 C-173.05066166 467.35074211 -173.05054207 468.21320297 -173.05041885 469.10179901 C-173.0430686 511.10408186 -172.05462762 553.00749568 -169.04638672 594.91357422 C-167.92584635 610.59527084 -167.06316901 626.28707115 -166.27686691 641.98847198 C-166.17792198 643.94593048 -166.07594817 645.90323512 -165.97390747 647.86053467 C-165.29137986 661.00754646 -164.7294198 674.15109101 -164.59375 687.31640625 C-164.57355301 688.36270203 -164.55335602 689.4089978 -164.532547 690.48699951 C-164.52978256 691.45067444 -164.52701813 692.41434937 -164.52416992 693.40722656 C-164.5168132 694.24747375 -164.50945648 695.08772095 -164.50187683 695.95343018 C-164.95027408 698.78826251 -165.9099983 700.16277502 -167.86328125 702.23828125 C-170.23828125 702.734375 -170.23828125 702.734375 -172.86328125 702.67578125 C-173.72953125 702.67449219 -174.59578125 702.67320312 -175.48828125 702.671875 C-178.33500763 702.15216015 -179.07112465 701.46068254 -180.86328125 699.23828125 C-181.17789169 696.33115981 -181.324504 693.58860374 -181.36328125 690.67578125 C-181.57428879 683.82648917 -182.03390155 677.08371776 -182.88244629 670.282547 C-184.17061346 659.94615192 -185.2115066 649.63951765 -185.859375 639.2421875 C-185.90066402 638.58785988 -185.94195305 637.93353226 -185.98449326 637.25937653 C-187.08694017 619.68115836 -187.8430656 602.08859018 -188.48828125 584.48828125 C-188.5206916 583.60634346 -188.55310196 582.72440567 -188.58649445 581.81574249 C-191.92769493 489.93775682 -190.27076642 398.00464209 -183.49317932 306.32133484 C-182.94467109 298.76687558 -182.55310038 291.21379219 -182.22309875 283.64704895 C-181.87399437 275.88773216 -181.2758376 268.159513 -180.61953735 260.42095947 C-178.28916844 232.66574814 -176.68276305 205.10290926 -176.67578125 177.23828125 C-176.67478424 176.16161194 -176.67378723 175.08494263 -176.67276001 173.97564697 C-176.67308224 170.91728627 -176.68204772 167.85911074 -176.6953125 164.80078125 C-176.69712524 163.41582962 -176.69712524 163.41582962 -176.69897461 162.00289917 C-176.70840088 160.72915939 -176.70840088 160.72915939 -176.71801758 159.4296875 C-176.72182938 158.68920166 -176.72564117 157.94871582 -176.72956848 157.18579102 C-176.79649796 155.0211261 -176.79649796 155.0211261 -177.86328125 152.23828125 C-185.07426072 152.7244147 -190.97387619 154.47381697 -197.67578125 157.11328125 C-198.71927734 157.51546875 -199.76277344 157.91765625 -200.83789062 158.33203125 C-203.06132133 159.19135361 -205.2828032 160.05573319 -207.50244141 160.92480469 C-210.74615749 162.19250718 -213.99690529 163.44018866 -217.25 164.68359375 C-317.04277246 202.58079022 -317.04277246 202.58079022 -405.86328125 260.23828125 C-406.85585938 261.03621094 -407.8484375 261.83414062 -408.87109375 262.65625 C-414.03748882 266.36920265 -414.03748882 266.36920265 -417.86328125 271.23828125 C-417.75447458 273.17675806 -417.6267791 275.11419931 -417.48828125 277.05078125 C-417.46161904 282.60318549 -417.46161904 282.60318549 -419.06640625 285.140625 C-423.14139514 288.42537072 -427.43234967 288.92916138 -432.5546875 288.671875 C-435.84093514 288.05466098 -437.63531474 286.68185742 -439.86328125 284.23828125 C-441.50211893 280.96060589 -441.51903698 277.76815869 -440.86328125 274.23828125 C-428.42069063 252.77549309 -403.24866871 237.98563231 -382.86328125 225.23828125 C-381.87811523 224.62025635 -381.87811523 224.62025635 -380.87304688 223.98974609 C-369.49489377 216.89502629 -357.67935259 210.56604709 -345.86328125 204.23828125 C-344.98333496 203.76600098 -344.10338867 203.2937207 -343.19677734 202.80712891 C-297.71784786 178.46809574 -249.84673474 158.93752438 -201.65174866 140.71659851 C-199.15956759 139.77302284 -196.66922458 138.82473552 -194.17919922 137.87548828 C-191.62711264 136.90289958 -189.07187853 135.95101092 -186.50439453 135.01904297 C-185.61349121 134.68791504 -184.72258789 134.35678711 -183.8046875 134.015625 C-183.09127197 133.759021 -182.37785645 133.50241699 -181.64282227 133.23803711 C-178.30954292 131.36538257 -177.04343339 128.77873766 -175.86328125 125.23828125 C-175.73276974 122.56233634 -175.65384489 119.90781959 -175.6171875 117.23046875 C-175.58417324 115.5859337 -175.55096321 113.94140257 -175.51757812 112.296875 C-175.47078581 109.72838905 -175.42650797 107.15990897 -175.38647461 104.59130859 C-175.03328915 82.95605564 -174.34624595 61.24573075 -160.86328125 43.23828125 C-160.23550781 42.39523438 -159.60773438 41.5521875 -158.9609375 40.68359375 C-148.18883273 28.12616807 -131.16728201 22.87410929 -115.86328125 18.23828125 C-115.0729248 17.99609863 -114.28256836 17.75391602 -113.46826172 17.50439453 C-77.09831034 6.52520171 -37.97297519 0.23879781 0 0 Z " fill="#FAFBFB" transform="translate(843.86328125,135.76171875)"/>
<path d="M0 0 C0.85078125 0.20109375 1.7015625 0.4021875 2.578125 0.609375 C14.50512029 3.76425762 25.74625192 9.04191429 32.15234375 19.96484375 C34.05263133 24.52728535 33.47914479 29.43479369 32.0625 34.0625 C27.20390148 40.98232213 21.21743413 45.20215423 13.59375 48.75390625 C12.85953827 49.09675156 12.12532654 49.43959686 11.36886597 49.79283142 C1.54938316 54.25492012 -8.66840141 57.61146443 -18.875 61.0625 C-21.05392023 61.80783249 -23.23246172 62.55427301 -25.41064453 63.30175781 C-29.83492535 64.81921526 -34.26058728 66.33252358 -38.6875 67.84228516 C-47.76313779 70.94048341 -56.82074181 74.08996163 -65.875 77.25 C-66.72542877 77.54652466 -67.57585754 77.84304932 -68.45205688 78.14855957 C-102.76938923 90.11926506 -136.98632663 102.3818542 -171.19137573 114.66903687 C-173.26808755 115.41492997 -175.34500279 116.16025701 -177.42214966 116.90493774 C-183.04140392 118.92037129 -188.65490519 120.95054686 -194.2611084 123.00201416 C-196.13334311 123.6842112 -198.00755139 124.36100975 -199.88342285 125.03314209 C-202.73182791 126.05480449 -205.57332392 127.09395788 -208.4140625 128.13671875 C-209.26165131 128.43649124 -210.10924011 128.73626373 -210.98251343 129.04512024 C-219.9589614 132.38394088 -226.21096824 136.82027712 -230.40576172 145.57177734 C-234.89084709 155.55454719 -237.29998832 166.43423121 -240 177 C-240.23992676 177.93312012 -240.47985352 178.86624023 -240.72705078 179.82763672 C-241.99985853 184.79968414 -243.23837447 189.77945568 -244.45458984 194.765625 C-245.29302377 198.20042682 -246.14543578 201.63168269 -247 205.0625 C-247.30131836 206.27236572 -247.60263672 207.48223145 -247.91308594 208.72875977 C-248.63028389 211.57565966 -249.37583483 214.41289969 -250.14624023 217.24584961 C-253.22277304 228.58910428 -255.76928767 239.97531486 -258.0625 251.5 C-258.55471725 253.94668822 -259.0485291 256.39305056 -259.54257202 258.83937073 C-259.87064721 260.46573216 -260.19765542 262.09230919 -260.52359009 263.71910095 C-261.49548783 268.55852769 -262.50715246 273.38763688 -263.54649353 278.21299744 C-265.66529287 288.07945192 -267.42396698 297.97111936 -269 307.9375 C-269.25594762 309.5371213 -269.511971 311.13673048 -269.76806641 312.73632812 C-271.37361547 322.81385606 -272.91294152 332.90064289 -274.375 343 C-274.54257812 344.14976318 -274.71015625 345.29952637 -274.8828125 346.48413086 C-275.10710937 348.06979858 -275.10710937 348.06979858 -275.3359375 349.6875 C-275.46532715 350.59886719 -275.5947168 351.51023437 -275.72802734 352.44921875 C-275.99866615 354.9874901 -276.04882739 357.44948686 -276 360 C-250.04870713 361.17367656 -223.96880408 356.70383546 -198.35693359 352.93579102 C-185.28418597 351.0135734 -172.18846301 349.29130774 -159.08251953 347.61157227 C-158.30344742 347.51084915 -157.52437531 347.41012604 -156.72169495 347.30635071 C-155.26585483 347.11815913 -153.80976243 346.93190476 -152.3533783 346.74797058 C-149.17216061 346.33575097 -146.09877715 345.82705976 -143 345 C-137.3082133 344.51874324 -132.64756821 344.25196112 -128 348 C-127 349 -127 349 -126.6875 352.3125 C-127 356 -127 356 -128.48022461 358.13061523 C-131.95962526 360.71193204 -135.44058921 361.07652805 -139.62890625 361.59765625 C-140.48165634 361.71697006 -141.33440643 361.83628387 -142.21299744 361.95921326 C-144.99418291 362.34364593 -147.777936 362.70343154 -150.5625 363.0625 C-152.49755035 363.3243816 -154.43244589 363.58740959 -156.3671875 363.8515625 C-167.42186836 365.34506149 -178.489034 366.67208819 -189.58520508 367.81884766 C-201.82915221 369.12002881 -213.99922903 370.94916654 -226.18041992 372.73168945 C-234.58177796 373.95800165 -242.98081216 375.15298024 -251.41015625 376.171875 C-252.49666977 376.30457542 -252.49666977 376.30457542 -253.60513306 376.43995667 C-256.95965751 376.84823523 -260.31439931 377.24358753 -263.67285156 377.61889648 C-264.83913086 377.75884033 -266.00541016 377.89878418 -267.20703125 378.04296875 C-268.2122583 378.15664795 -269.21748535 378.27032715 -270.25317383 378.38745117 C-273.53692232 379.11973497 -275.40120604 379.83174639 -278 382 C-281.11835737 388.28493449 -281.78005807 394.58307029 -282.46484375 401.50390625 C-282.58283829 402.6071373 -282.70083282 403.71036835 -282.82240295 404.84703064 C-283.07317285 407.20028194 -283.31934373 409.55402717 -283.5612793 411.90820312 C-284.06835924 416.83355843 -284.60030975 421.75612064 -285.13150024 426.67892456 C-285.3945672 429.11706501 -285.65659776 431.55531752 -285.91757202 433.99368286 C-305.81998901 619.67314827 -305.81998901 619.67314827 -353 661 C-366.28558904 671.27363873 -382.41951717 674.73000765 -399 673 C-411.97389222 670.58018376 -424.33363477 665.09493412 -432 654 C-436.81819953 645.45158149 -436.36249485 633.02373779 -433.9375 623.625 C-430.03546947 612.91710227 -421.68167865 601.18828944 -412 595 C-409.375 595.125 -409.375 595.125 -407 596 C-404.60748732 599.58876902 -404.44032914 600.76249208 -405 605 C-406.39859737 607.84714464 -408.19855413 610.39441744 -410 613 C-417.76197074 624.48160224 -421.27979298 632.87241517 -420 647 C-419.26518022 649.9303722 -418.29847985 652.24722272 -417 655 C-416.505 656.485 -416.505 656.485 -416 658 C-413.70465742 659.13545562 -413.70465742 659.13545562 -411 660 C-410.28457031 660.34289062 -409.56914062 660.68578125 -408.83203125 661.0390625 C-399.50004026 664.20550358 -385.933662 662.71710901 -377 659 C-348.26976499 643.36103169 -335.61030925 597.04555068 -326.86572266 568.26708984 C-324.41912935 559.8854644 -322.17744874 551.45497356 -320 543 C-319.75942871 542.08798828 -319.51885742 541.17597656 -319.27099609 540.23632812 C-312.9844609 516.3078288 -309.14575933 491.52088411 -306 467 C-305.8139686 465.56005811 -305.62793311 464.12011674 -305.44189453 462.68017578 C-303.91060728 450.79294376 -302.43265511 438.89951519 -301 427 C-300.91216248 426.27103516 -300.82432495 425.54207031 -300.73382568 424.79101562 C-298.23706012 404.45554339 -298.23706012 404.45554339 -298 384 C-307.87928519 383.42612776 -317.21177347 385.14826762 -326.875 386.9375 C-327.72125946 387.09205658 -328.56751892 387.24661316 -329.43942261 387.40585327 C-353.86170348 391.88871445 -378.02711861 397.41244094 -401.625 405.1875 C-402.82133057 405.5791333 -404.01766113 405.9707666 -405.25024414 406.37426758 C-411.80505341 408.61826901 -417.77474255 411.28196531 -423.77099609 414.7590332 C-426 416 -426 416 -429 417 C-429.28875 417.61875 -429.5775 418.2375 -429.875 418.875 C-431.43678402 421.82503648 -432.99349637 422.55736318 -436 424 C-439.6640625 424.43359375 -439.6640625 424.43359375 -443.625 424.4375 C-445.59339844 424.46650391 -445.59339844 424.46650391 -447.6015625 424.49609375 C-451 424 -451 424 -452.9609375 422.1875 C-454.58464902 418.76915995 -454.00713288 416.58791087 -453 413 C-446.84281213 405.11110304 -436.9767435 400.75905011 -427.9375 397.0625 C-426.89601807 396.63356445 -425.85453613 396.20462891 -424.78149414 395.76269531 C-414.68612037 391.70725635 -404.41049905 388.5889383 -393.90869141 385.77929688 C-391.12484345 385.03344807 -388.34944808 384.26158052 -385.57421875 383.484375 C-369.82915857 379.15157506 -353.85363303 375.96275965 -337.84765625 372.77099609 C-334.53096263 372.10639467 -331.21782769 371.42781678 -327.90625 370.73828125 C-319.2801412 368.95263448 -310.72990737 367.44195898 -301.96875 366.4921875 C-298.1832517 365.91743705 -298.1832517 365.91743705 -295 364 C-290.21496825 351.83804431 -289.631866 337.54652412 -287.99609375 324.703125 C-284.22222548 295.14545238 -278.74276484 266.06741109 -271.53092957 237.17095947 C-270.36229969 232.48346554 -269.22311468 227.789744 -268.10546875 223.08984375 C-264.9862435 209.98238065 -261.7801326 196.93323021 -258 184 C-257.75362793 183.14486816 -257.50725586 182.28973633 -257.25341797 181.40869141 C-256.46805119 178.68689705 -255.67320769 175.96805395 -254.875 173.25 C-254.63322021 172.41525146 -254.39144043 171.58050293 -254.14233398 170.72045898 C-253.08645727 167.17591086 -252.00265407 164.00528322 -250.3359375 160.6875 C-248.41108481 156.81528171 -248.71517598 154.27236034 -249 150 C-249.33 149.34 -249.66 148.68 -250 148 C-257.62051614 147.3273305 -263.32702004 149.68486965 -270.3125 152.5625 C-271.52236572 153.04992676 -272.73223145 153.53735352 -273.97875977 154.03955078 C-298.44199322 163.93642775 -322.61989124 174.56367517 -346.64453125 185.4765625 C-348.82538847 186.46670722 -351.00760933 187.45385585 -353.19140625 188.4375 C-380.63860616 200.80419833 -407.84237603 214.08149169 -434 229 C-435.11922852 229.63760254 -436.23845703 230.27520508 -437.39160156 230.93212891 C-466.55554535 247.46256082 -466.55554535 247.46256082 -493.09814453 267.78735352 C-508.51469365 281.37564321 -508.51469365 281.37564321 -517.125 281.8125 C-521 281 -521 281 -523.625 279.3125 C-525 277 -525 277 -524.90234375 274.640625 C-523.68200507 271.06941744 -521.88260147 269.78010427 -518.9375 267.4375 C-518.40439209 267.01114258 -517.87128418 266.58478516 -517.32202148 266.14550781 C-515.56000817 264.74760522 -513.78169959 263.37269907 -512 262 C-511.40735352 261.53674316 -510.81470703 261.07348633 -510.20410156 260.59619141 C-483.4706519 239.74696753 -454.02685614 222.31687352 -424.04492188 206.59814453 C-421.16420911 205.08618608 -418.29214693 203.55900665 -415.421875 202.02734375 C-389.38272824 188.19913008 -362.69988728 175.77257094 -335.70306396 163.94487 C-330.61481428 161.71473895 -325.53886198 159.45852853 -320.46875 157.1875 C-308.73571515 151.94322047 -296.99585148 146.75777249 -285.06640625 141.97265625 C-284.234543 141.63866318 -283.40267975 141.3046701 -282.54560852 140.96055603 C-278.53027697 139.35226601 -274.50997296 137.75836598 -270.48071289 136.18530273 C-254.70431518 129.96812839 -239.65877782 123.00857318 -232 107 C-230.26868877 102.87311186 -228.65284131 98.70120637 -227.02685547 94.53198242 C-219.95489802 76.54388412 -209.3318906 61.82566433 -196 48 C-195.28457031 47.22140625 -194.56914062 46.4428125 -193.83203125 45.640625 C-169.6054985 20.00504438 -133.8957341 9.97232108 -100.71777344 1.68603516 C-98.326576 1.08243609 -95.94772094 0.4483296 -93.5703125 -0.20703125 C-62.65140172 -8.62528292 -30.97599055 -7.7030241 0 0 Z " fill="#FBFBFB" transform="translate(546,152)"/>
<path d="M0 0 C0.75664948 0.07322479 1.51329895 0.14644958 2.2928772 0.22189331 C12.35947575 1.20735015 22.17800544 2.60081939 32.0625 4.8125 C33.25842773 5.07603271 34.45435547 5.33956543 35.68652344 5.61108398 C62.41538813 11.60720393 62.41538813 11.60720393 71 18 C70.75805664 19.88867188 70.75805664 19.88867188 70 22 C68.21264648 23.03320312 68.21264648 23.03320312 65.87109375 23.78125 C64.99904297 24.06613281 64.12699219 24.35101563 63.22851562 24.64453125 C61.84696289 25.06798828 61.84696289 25.06798828 60.4375 25.5 C59.57447266 25.78230469 58.71144531 26.06460938 57.82226562 26.35546875 C50.34075516 28.74652271 42.73557354 30.61497171 35.1109314 32.48016357 C31.62015645 33.33979927 28.13670675 34.22808762 24.65234375 35.11328125 C8.96926257 39.08095347 -6.72612642 42.89468115 -22.51977539 46.39892578 C-32.04881815 48.52634571 -41.53011781 50.8119212 -51 53.1875 C-51.64964722 53.35017365 -52.29929443 53.51284729 -52.96862793 53.68045044 C-62.33680391 56.03056375 -71.67175065 58.49675673 -81 61 C-83.10275991 61.55898765 -85.20561942 62.11760083 -87.30859375 62.67578125 C-98.89733834 65.76511818 -110.4401461 68.96835233 -121.94116211 72.36987305 C-130.44512137 74.87169655 -138.9944026 77.18555946 -147.5703125 79.42773438 C-155.34194531 81.48109214 -163.0002574 83.83695742 -170.66107178 86.26287842 C-175.06195798 87.64983342 -179.47110979 89.01020205 -183.87890625 90.375 C-185.80928171 90.97383933 -187.73961985 91.57279901 -189.66992188 92.171875 C-192.62011351 93.08739256 -195.5704409 94.00245847 -198.52124023 94.91601562 C-201.43258967 95.81753253 -204.34333262 96.72098185 -207.25390625 97.625 C-208.18643219 97.91366943 -209.11895813 98.20233887 -210.07974243 98.49975586 C-214.23924953 99.79459437 -218.38290641 101.11352597 -222.49560547 102.55078125 C-223.17396957 102.78651855 -223.85233368 103.02225586 -224.55125427 103.26513672 C-226.3124617 103.88395869 -228.06849114 104.5174658 -229.82397461 105.15234375 C-233.39828843 106.10630006 -236.31794955 106.36219639 -240 106 C-242.39862354 102.40206469 -242.28237017 100.69122298 -242.3359375 96.41015625 C-242.34431641 95.75790573 -242.35269531 95.10565521 -242.36132812 94.43363953 C-242.38094737 92.30968336 -242.38089711 90.18653214 -242.375 88.0625 C-242.37445618 87.34058472 -242.37391235 86.61866943 -242.37335205 85.87487793 C-242.30942999 67.47452922 -240.90277745 48.63412661 -228.125 34.25 C-218.89807146 25.67548055 -205.70435366 21.05888683 -194 17 C-192.60587891 16.51466797 -192.60587891 16.51466797 -191.18359375 16.01953125 C-157.64478018 5.07810738 -122.03908212 0.69842758 -87 -2 C-86.24041992 -2.05929688 -85.48083984 -2.11859375 -84.69824219 -2.1796875 C-56.33169338 -4.28928476 -28.24218277 -2.80060435 0 0 Z " fill="#212529" transform="translate(923,154)"/>
<path d="M0 0 C0.77701263 -0.00100708 1.55402527 -0.00201416 2.35458374 -0.00305176 C19.92684967 0.01232977 36.49476929 1.68744357 53.25 7.25 C54.1059375 7.49621094 54.961875 7.74242187 55.84375 7.99609375 C60.89163988 9.56911577 60.89163988 9.56911577 62.5 12.625 C62.15490091 16.24854043 60.71473417 17.60897476 58.25 20.25 C55.66040039 21.74536133 55.66040039 21.74536133 52.53515625 23.01953125 C51.93760025 23.26387405 51.34004425 23.50821686 50.72438049 23.75996399 C41.64986129 27.39241284 32.37697814 30.53128003 23.14572144 33.73651123 C17.14553841 35.82028538 11.15115531 37.9206317 5.15625 40.01953125 C3.92241074 40.45112549 2.68857147 40.88271973 1.41734314 41.32739258 C-11.51745973 45.8575219 -24.41638047 50.48613767 -37.3125 55.125 C-52.27595374 60.50359808 -67.24509515 65.86302159 -82.25 71.125 C-82.98331543 71.38236938 -83.71663086 71.63973877 -84.47216797 71.90490723 C-91.92542243 74.52016405 -99.38250122 77.12410324 -106.8454895 79.7114563 C-110.83578923 81.0955901 -114.82456974 82.48405515 -118.8125 83.875 C-119.58094238 84.14290344 -120.34938477 84.41080688 -121.14111328 84.68682861 C-132.95629659 88.81593547 -144.63714249 93.21488603 -156.23852539 97.91259766 C-157.29418701 98.33847168 -158.34984863 98.7643457 -159.4375 99.203125 C-160.80455078 99.76241699 -160.80455078 99.76241699 -162.19921875 100.33300781 C-164.75645266 101.2523197 -167.04445156 101.96620906 -169.75 102.25 C-170.74 101.59 -171.73 100.93 -172.75 100.25 C-172.24318534 94.85554806 -170.82434202 90.63129605 -168.3125 85.8125 C-167.95833008 85.12438232 -167.60416016 84.43626465 -167.23925781 83.72729492 C-160.25475885 70.39586727 -152.50394879 58.82385874 -141.75 48.25 C-140.92757813 47.42886719 -140.10515625 46.60773438 -139.2578125 45.76171875 C-114.53138567 22.29188083 -77.15896904 12.42091083 -44.75 5.25 C-43.52845215 4.97857178 -43.52845215 4.97857178 -42.28222656 4.70166016 C-39.77302538 4.14788868 -37.26204065 3.60323495 -34.75 3.0625 C-33.9854248 2.89556641 -33.22084961 2.72863281 -32.43310547 2.55664062 C-21.64203546 0.27594481 -10.99372878 0.00987039 0 0 Z " fill="#212529" transform="translate(501.75,162.75)"/>
</svg>
