<?xml version="1.0" standalone="no"?>
<!DOCTYPE svg PUBLIC "-//W3C//DTD SVG 20010904//EN"
 "http://www.w3.org/TR/2001/REC-SVG-20010904/DTD/svg10.dtd">
<svg version="1.0" xmlns="http://www.w3.org/2000/svg"
 width="320.000000pt" height="320.000000pt" viewBox="0 0 320.000000 320.000000"
 preserveAspectRatio="xMidYMid meet">
<metadata>
Created by potrace 1.16, written by Peter Selinger 2001-2019
</metadata>
<g transform="translate(0.000000,320.000000) scale(0.100000,-0.100000)"
fill="#000000" stroke="none">
<path d="M1415 3019 c-38 -5 -115 -20 -169 -34 -535 -137 -935 -561 -1052
-1115 -26 -120 -26 -420 -1 -540 74 -351 257 -649 530 -861 489 -380 1156
-404 1671 -62 l99 66 82 -89 82 -89 44 37 c24 20 84 75 134 121 l90 84 -70 78
c-119 132 -114 110 -50 209 235 360 291 816 153 1229 -172 519 -642 902 -1183
966 -104 13 -259 12 -360 0z m322 -360 c237 -32 457 -142 624 -310 325 -329
401 -818 192 -1236 -51 -102 -56 -105 -99 -54 -20 23 -40 41 -44 39 -16 -6
-260 -231 -260 -240 0 -5 20 -31 45 -57 25 -26 45 -51 45 -55 0 -13 -146 -100
-220 -131 -173 -74 -402 -103 -578 -75 -179 28 -368 112 -508 224 -449 360
-534 1004 -193 1466 231 313 620 481 996 429z"/>
<path d="M2185 1865 c-27 -8 -53 -14 -56 -15 -21 -1 -104 -91 -121 -129 -60
-138 -1 -308 126 -367 57 -27 177 -33 235 -13 30 11 35 9 65 -20 17 -17 36
-31 41 -31 5 0 22 12 37 27 l28 27 -31 32 -31 32 26 39 c35 52 50 137 37 208
-12 66 -31 103 -72 144 -40 40 -71 56 -137 70 -66 14 -84 13 -147 -4z m151
-124 c17 -10 38 -34 47 -54 20 -41 22 -132 4 -165 l-13 -23 -26 21 c-33 26
-40 25 -68 -5 -22 -23 -22 -26 -7 -43 10 -10 17 -22 17 -25 0 -15 -65 -6 -95
13 -86 53 -84 237 3 284 38 21 101 20 138 -3z"/>
<path d="M670 1600 l0 -260 210 0 210 0 0 55 0 55 -135 0 -135 0 0 205 0 205
-75 0 -75 0 0 -260z"/>
<path d="M1170 1600 l0 -260 70 0 70 0 0 260 0 260 -70 0 -70 0 0 -260z"/>
<path d="M1420 1600 l0 -260 65 0 65 0 0 160 c0 88 3 160 8 160 4 0 50 -72
102 -160 l95 -159 78 -1 77 0 0 260 0 260 -70 0 -70 0 0 -157 c0 -106 -3 -154
-10 -147 -6 6 -50 75 -98 155 l-88 144 -77 3 -77 3 0 -261z"/>
</g>
</svg>
